<svg id="visual" viewBox="0 0 1080 1920" width="1080" height="1920" xmlns="http://www.w3.org/2000/svg" xmlns:xlink="http://www.w3.org/1999/xlink" version="1.1"><rect x="0" y="0" width="1080" height="1920" fill="#ffffff"></rect><path d="M0 1252L45 1235.3C90 1218.7 180 1185.3 270 1151.7C360 1118 450 1084 540 1070.2C630 1056.3 720 1062.7 810 1067.8C900 1073 990 1077 1035 1079L1080 1081L1080 1921L1035 1921C990 1921 900 1921 810 1921C720 1921 630 1921 540 1921C450 1921 360 1921 270 1921C180 1921 90 1921 45 1921L0 1921Z" fill="#bbe2ec"></path><path d="M0 1444L45 1404.3C90 1364.7 180 1285.3 270 1266.5C360 1247.7 450 1289.3 540 1332.8C630 1376.3 720 1421.7 810 1410.5C900 1399.3 990 1331.7 1035 1297.8L1080 1264L1080 1921L1035 1921C990 1921 900 1921 810 1921C720 1921 630 1921 540 1921C450 1921 360 1921 270 1921C180 1921 90 1921 45 1921L0 1921Z" fill="#82c8cd"></path><path d="M0 1354L45 1355.8C90 1357.7 180 1361.3 270 1406.5C360 1451.7 450 1538.3 540 1549.3C630 1560.3 720 1495.7 810 1459.5C900 1423.3 990 1415.7 1035 1411.8L1080 1408L1080 1921L1035 1921C990 1921 900 1921 810 1921C720 1921 630 1921 540 1921C450 1921 360 1921 270 1921C180 1921 90 1921 45 1921L0 1921Z" fill="#4aaea5"></path><path d="M0 1764L45 1729.3C90 1694.7 180 1625.3 270 1626.5C360 1627.7 450 1699.3 540 1710.8C630 1722.3 720 1673.7 810 1637.5C900 1601.3 990 1577.7 1035 1565.8L1080 1554L1080 1921L1035 1921C990 1921 900 1921 810 1921C720 1921 630 1921 540 1921C450 1921 360 1921 270 1921C180 1921 90 1921 45 1921L0 1921Z" fill="#0d9276"></path></svg>