<svg id="visual" viewBox="0 0 1080 1920" width="1080" height="1920" xmlns="http://www.w3.org/2000/svg" xmlns:xlink="http://www.w3.org/1999/xlink" version="1.1"><rect x="0" y="0" width="1080" height="1920" fill="#fff"></rect><defs><linearGradient id="grad1_0" x1="0%" y1="0%" x2="100%" y2="100%"><stop offset="30%" stop-color="#ffffff" stop-opacity="1"></stop><stop offset="70%" stop-color="#ffffff" stop-opacity="1"></stop></linearGradient></defs><defs><linearGradient id="grad2_0" x1="0%" y1="0%" x2="100%" y2="100%"><stop offset="30%" stop-color="#ffffff" stop-opacity="1"></stop><stop offset="70%" stop-color="#ffffff" stop-opacity="1"></stop></linearGradient></defs><g transform="translate(1080, 0)"><path d="M0 564C-91.1 544.1 -182.1 524.2 -282.5 489.3C-382.9 454.4 -492.6 404.5 -555.1 320.5C-617.6 236.5 -632.8 118.2 -648 0L0 0Z" fill="#0D9276"></path></g><g transform="translate(0, 1920)"><path d="M0 -648C86.8 -585.9 173.5 -523.8 275.5 -477.2C377.5 -430.6 494.6 -399.4 558.6 -322.5C622.5 -245.6 633.3 -122.8 644 0L0 0Z" fill="#0D9276"></path></g></svg>