<svg id="visual" viewBox="0 0 900 600" width="900" height="600" xmlns="http://www.w3.org/2000/svg" xmlns:xlink="http://www.w3.org/1999/xlink" version="1.1"><g transform="translate(897.9811606099022 620.8755991384143)"><path d="M244.2 -361.3C287.8 -304.5 274.7 -194.7 319.6 -94.8C364.6 5.2 467.6 95.3 478.1 183.9C488.6 272.5 406.5 359.5 311.4 366.6C216.3 373.7 108.2 300.9 31.2 258C-45.8 215.1 -91.7 202.2 -153.8 184.4C-216 166.6 -294.4 143.9 -366.1 81.6C-437.8 19.3 -502.8 -82.6 -462.7 -133.1C-422.6 -183.7 -277.4 -182.9 -182.8 -223.1C-88.2 -263.4 -44.1 -344.7 28.1 -383.4C100.3 -422.1 200.6 -418.1 244.2 -361.3" fill="#0d9376"></path></g></svg>