<svg id="visual" viewBox="0 0 900 600" width="900" height="600" xmlns="http://www.w3.org/2000/svg" xmlns:xlink="http://www.w3.org/1999/xlink" version="1.1"><g transform="translate(-69.88577012808057 6.894075303189226)"><path d="M181.7 -251.7C275.2 -182.1 418.2 -182.2 487.9 -122.1C557.6 -61.9 554.1 58.5 486 123.8C417.9 189.1 285 199.3 193.3 253.5C101.5 307.7 50.7 405.8 -26.3 442C-103.3 478.1 -206.5 452.2 -279.1 391.8C-351.7 331.4 -393.6 236.5 -398.4 147.1C-403.2 57.7 -370.9 -26.2 -328.3 -91C-285.7 -155.9 -232.8 -201.7 -176.3 -283.4C-119.9 -365 -60 -482.5 -7.9 -471.6C44.1 -460.7 88.2 -321.4 181.7 -251.7" fill="#0d9376"></path></g></svg>